<svg height="2238" width="720" xmlns="http://www.w3.org/2000/svg">
<rect height="2238" fill="#555" width="720"></rect>
<text fill="#7f7" font-family="Courier New" font-size="12" xml:space="preserve">
<tspan x="10" y="26"></tspan>
<tspan x="10" y="42">&gt; npmdoc-licensing@0.0.1 test /home/travis/build/npmdoc/node-npmdoc-licensing</tspan>
<tspan x="10" y="58">&gt; (set -e; export PORT=$(utility2 shServerPortRandom); utility2 test test.js)</tspan>
<tspan x="10" y="74"></tspan>
<tspan x="10" y="90"></tspan>
<tspan x="10" y="106">[MODE_BUILD=npmTest] - 2017-04-07T05:20:02Z - npm-testing /home/travis/build/npmdoc/node-npmdoc-\</tspan>
<tspan x="10" y="122">licensing</tspan>
<tspan x="10" y="138"></tspan>
<tspan x="10" y="154"></tspan>
<tspan x="10" y="170">covering $ /home/travis/.nvm/versions/node/v6.10.2/bin/node /home/travis/build/npmdoc/node-npmdo\</tspan>
<tspan x="10" y="186">c-licensing/test.js</tspan>
<tspan x="10" y="202">merging file:///home/travis/build/npmdoc/node-npmdoc-licensing/tmp/build/test-report.json to tes\</tspan>
<tspan x="10" y="218">t-report</tspan>
<tspan x="10" y="234">&gt; server listening on http-port 49492</tspan>
<tspan x="10" y="250"></tspan>
<tspan x="10" y="266">Resolving dependencies, this might take a while</tspan>
<tspan x="10" y="282"></tspan>
<tspan x="10" y="298"></tspan>
<tspan x="10" y="314">Found a module that is incorrectly or not detected at all but does</tspan>
<tspan x="10" y="330">have a valid license? Please report this at:</tspan>
<tspan x="10" y="346"></tspan>
<tspan x="10" y="362">https://github.com/3rd-Eden/licenses/issues/new</tspan>
<tspan x="10" y="378"></tspan>
<tspan x="10" y="394">Which is the library that does the actual parsing and detection of</tspan>
<tspan x="10" y="410">the license so we can improve it's parsing algorithm and yield</tspan>
<tspan x="10" y="426">better results.</tspan>
<tspan x="10" y="442"></tspan>
<tspan x="10" y="458">created apidoc file:///home/travis/build/npmdoc/node-npmdoc-licensing/tmp/build/apidoc.html</tspan>
<tspan x="10" y="474"></tspan>
<tspan x="10" y="490"></tspan>
<tspan x="10" y="506">browserTest - created electron entry-page /home/travis/build/npmdoc/node-npmdoc-licensing/tmp/el\</tspan>
<tspan x="10" y="522">ectron.15b46dae9c40.962c125019a3.html</tspan>
<tspan x="10" y="538"></tspan>
<tspan x="10" y="554">[node test-case 1 of 6 passed] - testCase_buildLib_default</tspan>
<tspan x="10" y="570">[node test-case 2 of 6 passed] - testCase_buildReadme_default</tspan>
<tspan x="10" y="586">[node test-case 3 of 6 passed] - testCase_buildTest_default</tspan>
<tspan x="10" y="602"></tspan>
<tspan x="10" y="618">browserTest - created electron entry-page /home/travis/build/npmdoc/node-npmdoc-licensing/tmp/el\</tspan>
<tspan x="10" y="634">ectron.15b46dae9f90.7744cc372d37f.html</tspan>
<tspan x="10" y="650"></tspan>
<tspan x="10" y="666">Xlib:  extension "RANDR" missing on display ":99.0".</tspan>
<tspan x="10" y="682">Xlib:  extension "RANDR" missing on display ":99.0".</tspan>
<tspan x="10" y="698">merging file:///home/travis/build/npmdoc/node-npmdoc-licensing/tmp/build/test-report.json to tes\</tspan>
<tspan x="10" y="714">t-report</tspan>
<tspan x="10" y="730">merging file:///home/travis/build/npmdoc/node-npmdoc-licensing/tmp/build/test-report.json to tes\</tspan>
<tspan x="10" y="746">t-report</tspan>
<tspan x="10" y="762">Xlib:  extension "RANDR" missing on display ":99.0".</tspan>
<tspan x="10" y="778">Xlib:  extension "RANDR" missing on display ":99.0".</tspan>
<tspan x="10" y="794">[4916:0407/052004:WARNING:audio_manager.cc(314)] Multiple instances of AudioManager detected</tspan>
<tspan x="10" y="810">[4916:0407/052004:WARNING:audio_manager.cc(275)] Multiple instances of AudioManager detected</tspan>
<tspan x="10" y="826">[4915:0407/052004:WARNING:audio_manager.cc(314)] Multiple instances of AudioManager detected</tspan>
<tspan x="10" y="842">[4915:0407/052004:WARNING:audio_manager.cc(275)] Multiple instances of AudioManager detected</tspan>
<tspan x="10" y="858">&gt; server listening on http-port 64510</tspan>
<tspan x="10" y="874">[4962:0407/052004:ERROR:sandbox_linux.cc(343)] InitializeSandbox() called with multiple threads \</tspan>
<tspan x="10" y="890">in process gpu-process. </tspan>
<tspan x="10" y="906">[4963:0407/052004:ERROR:sandbox_linux.cc(343)] InitializeSandbox() called with multiple threads \</tspan>
<tspan x="10" y="922">in process gpu-process. </tspan>
<tspan x="10" y="938">[4916:0407/052004:ERROR:browser_gpu_channel_host_factory.cc(131)] Failed to create channel.</tspan>
<tspan x="10" y="954">[4915:0407/052004:ERROR:browser_gpu_channel_host_factory.cc(131)] Failed to create channel.</tspan>
<tspan x="10" y="970"></tspan>
<tspan x="10" y="986">browserTest - opened url /home/travis/build/npmdoc/node-npmdoc-licensing/tmp/build/apidoc.html</tspan>
<tspan x="10" y="1002"></tspan>
<tspan x="10" y="1018"></tspan>
<tspan x="10" y="1034">browserTest - opened url http://127.0.0.1:49492?modeTest=1</tspan>
<tspan x="10" y="1050"></tspan>
<tspan x="10" y="1066">[4915:0407/052006:INFO:CONSOLE(250)] "----------|-----------|-----------|-----------|-----------\</tspan>
<tspan x="10" y="1082">|</tspan>
<tspan x="10" y="1098">File      |   % Stmts |% Branches |   % Funcs |   % Lines |</tspan>
<tspan x="10" y="1114">----------|-----------|-----------|-----------|-----------|</tspan>
<tspan x="10" y="1130">----------|-----------|-----------|-----------|-----------|</tspan>
<tspan x="10" y="1146">All files |       100 |       100 |       100 |       100 |</tspan>
<tspan x="10" y="1162">----------|-----------|-----------|-----------|-----------|</tspan>
<tspan x="10" y="1178">", source: file:///home/travis/build/npmdoc/node-npmdoc-licensing/tmp/electron.15b46dae9f90.7744\</tspan>
<tspan x="10" y="1194">cc372d37f.html (250)</tspan>
<tspan x="10" y="1210">[4915:0407/052006:INFO:CONSOLE(250)] "created coverage file:///tmp/build/coverage.html/index.htm\</tspan>
<tspan x="10" y="1226">l", source: file:///home/travis/build/npmdoc/node-npmdoc-licensing/tmp/electron.15b46dae9f90.774\</tspan>
<tspan x="10" y="1242">4cc372d37f.html (250)</tspan>
<tspan x="10" y="1258">[node test-case 4 of 6 passed] - testCase_buildApp_default</tspan>
<tspan x="10" y="1274"></tspan>
<tspan x="10" y="1290">browserTest - created screenCapture file:///home/travis/build/npmdoc/node-npmdoc-licensing/tmp/b\</tspan>
<tspan x="10" y="1306">uild/screenCapture.npmTest.browser._2Fhome_2Ftravis_2Fbuild_2Fnpmdoc_2Fnode-npmdoc-licensing_2Ft\</tspan>
<tspan x="10" y="1322">mp_2Fbuild_2Fapidoc.html.png</tspan>
<tspan x="10" y="1338"></tspan>
<tspan x="10" y="1354">browserTest - created screenCapture file:///home/travis/build/npmdoc/node-npmdoc-licensing/tmp/b\</tspan>
<tspan x="10" y="1370">uild/screenCapture.npmTest.browser._2Fhome_2Ftravis_2Fbuild_2Fnpmdoc_2Fnode-npmdoc-licensing_2Ft\</tspan>
<tspan x="10" y="1386">mp_2Fbuild_2Fapidoc.html.html</tspan>
<tspan x="10" y="1402"></tspan>
<tspan x="10" y="1418">browserTest - exit-code 0 - /home/travis/build/npmdoc/node-npmdoc-licensing/tmp/build/apidoc.htm\</tspan>
<tspan x="10" y="1434">l</tspan>
<tspan x="10" y="1450"></tspan>
<tspan x="10" y="1466">[node test-case 5 of 6 passed] - testCase_buildApidoc_default</tspan>
<tspan x="10" y="1482"></tspan>
<tspan x="10" y="1498">browserTest - created screenCapture file:///home/travis/build/npmdoc/node-npmdoc-licensing/tmp/b\</tspan>
<tspan x="10" y="1514">uild/screenCapture.npmTest.browser..png</tspan>
<tspan x="10" y="1530"></tspan>
<tspan x="10" y="1546">browserTest - created screenCapture file:///home/travis/build/npmdoc/node-npmdoc-licensing/tmp/b\</tspan>
<tspan x="10" y="1562">uild/screenCapture.npmTest.browser..html</tspan>
<tspan x="10" y="1578"></tspan>
<tspan x="10" y="1594">browserTest - exit-code 0 - http://127.0.0.1:49492?modeTest=1</tspan>
<tspan x="10" y="1610"></tspan>
<tspan x="10" y="1626"></tspan>
<tspan x="10" y="1642">browserTest - merged coverage from /home/travis/build/npmdoc/node-npmdoc-licensing/tmp/coverage.\</tspan>
<tspan x="10" y="1658">npmTest.browser.%2F.json</tspan>
<tspan x="10" y="1674"></tspan>
<tspan x="10" y="1690"></tspan>
<tspan x="10" y="1706">browserTest - merging test-report from /home/travis/build/npmdoc/node-npmdoc-licensing/tmp/test-\</tspan>
<tspan x="10" y="1722">report.npmTest.browser.%2F.json</tspan>
<tspan x="10" y="1738"></tspan>
<tspan x="10" y="1754">[node test-case 6 of 6 passed] - testCase_webpage_default</tspan>
<tspan x="10" y="1770">------------------------------|-----------|-----------|-----------|-----------|</tspan>
<tspan x="10" y="1786">File                          |   % Stmts |% Branches |   % Funcs |   % Lines |</tspan>
<tspan x="10" y="1802">------------------------------|-----------|-----------|-----------|-----------|</tspan>
<tspan x="10" y="1818">   node-npmdoc-licensing/     |       100 |       100 |       100 |       100 |</tspan>
<tspan x="10" y="1834">      example.js              |       100 |       100 |       100 |       100 |</tspan>
<tspan x="10" y="1850">      lib.npmdoc_licensing.js |       100 |       100 |       100 |       100 |</tspan>
<tspan x="10" y="1866">      test.js                 |       100 |       100 |       100 |       100 |</tspan>
<tspan x="10" y="1882">------------------------------|-----------|-----------|-----------|-----------|</tspan>
<tspan x="10" y="1898">All files                     |       100 |       100 |       100 |       100 |</tspan>
<tspan x="10" y="1914">------------------------------|-----------|-----------|-----------|-----------|</tspan>
<tspan x="10" y="1930"></tspan>
<tspan x="10" y="1946">created coverage file:///home/travis/build/npmdoc/node-npmdoc-licensing/tmp/build/coverage.html/\</tspan>
<tspan x="10" y="1962">index.html</tspan>
<tspan x="10" y="1978">merging file:///home/travis/build/npmdoc/node-npmdoc-licensing/tmp/build/test-report.json to tes\</tspan>
<tspan x="10" y="1994">t-report</tspan>
<tspan x="10" y="2010"></tspan>
<tspan x="10" y="2026">-------------------------------------------------------</tspan>
<tspan x="10" y="2042">| test-report - buildNpmdoc - node - linux v6.10.2 - 2017-04-07T05:19:41.864Z</tspan>
<tspan x="10" y="2058">|   36507 ms            0 failed        6 passed      |</tspan>
<tspan x="10" y="2074">-------------------------------------------------------</tspan>
<tspan x="10" y="2090"></tspan>
<tspan x="10" y="2106">created test-report file:///home/travis/build/npmdoc/node-npmdoc-licensing/tmp/build/test-report\</tspan>
<tspan x="10" y="2122">.html</tspan>
<tspan x="10" y="2138"></tspan>
<tspan x="10" y="2154"></tspan>
<tspan x="10" y="2170">npmTest - 0 failed tests</tspan>
<tspan x="10" y="2186"></tspan>
<tspan x="10" y="2202"></tspan>
<tspan x="10" y="2218">[MODE_BUILD=npmTest] - 2017-04-07T05:20:21Z - EXIT_CODE - 0</tspan>
</text>
</svg>
